<mxfile host="app.diagrams.net" modified="2024-07-04T12:18:14.186Z" agent="Mozilla/5.0 (Windows NT 10.0; Win64; x64) AppleWebKit/537.36 (KHTML, like Gecko) Chrome/126.0.0.0 Safari/537.36 Edg/126.0.0.0" version="24.6.4" etag="yZxhOS1_DSje2kupLs9Y" type="github">
  <diagram name="Page-1" id="H65d2I4zAaGBEBJaZodw">
    <mxGraphModel>
      <root>
        <mxCell id="0" />
        <mxCell id="1" parent="0" />
      </root>
    </mxGraphModel>
  </diagram>
</mxfile>
